REM COMMENT "Generated by IcecastMetadataRecorder https://github.com/eshaz/icecast-metadata-js"
REM BR "16"
REM METAINT "64"
REM DATE "2020-07-29T21:16:11.222Z"
TITLE "isics-all"
FILE "isics-all.mp3" WAVE
  TRACK 1 AUDIO
    TITLE "2020-07-29T21:25:23.542Z TO:1102 Polk County - Westcom Law Enforcement 2 FROM:1377"
    INDEX 01 09:12:24
  TRACK 2 AUDIO
    TITLE "2020-07-29T21:25:29.846Z TO:1101 Polk County - Westcom Law Enforcement 1 FROM:1381"
    INDEX 01 09:18:47
  TRACK 3 AUDIO
    TITLE "2020-07-29T21:25:34.038Z TO:1102 Polk County - Westcom Law Enforcement 2 FROM:1006"
    INDEX 01 09:22:61
  TRACK 4 AUDIO
    TITLE "2020-07-29T21:25:38.934Z TO:1102 Polk County - Westcom Law Enforcement 2 FROM:1377"
    INDEX 01 09:27:53
  TRACK 5 AUDIO
    TITLE "2020-07-29T21:25:44.534Z TO:1102 Polk County - Westcom Law Enforcement 2 FROM:UNKNOWN"
    INDEX 01 09:33:23
  TRACK 6 AUDIO
    TITLE "2020-07-29T21:25:45.238Z TO:7300 Department of Transportation - District 1 Highway Helper - Des Moines Area FROM:14948"
    INDEX 01 09:34:01
  TRACK 7 AUDIO
    TITLE "2020-07-29T21:25:47.350Z TO:1101 Polk County - Westcom Law Enforcement 1 FROM:1004"
    INDEX 01 09:36:10
  TRACK 8 AUDIO
    TITLE "2020-07-29T21:25:49.430Z TO:1102 Polk County - Westcom Law Enforcement 2 FROM:1377"
    INDEX 01 09:38:16
  TRACK 9 AUDIO
    TITLE "2020-07-29T21:25:53.622Z TO:1102 Polk County - Westcom Law Enforcement 2 FROM:UNKNOWN"
    INDEX 01 09:42:30
  TRACK 10 AUDIO
    TITLE "END"
    INDEX 01 09:43:61